%TF.GenerationSoftware,KiCad,Pcbnew,(7.0.0)*%
%TF.CreationDate,2023-04-17T20:28:16-05:00*%
%TF.ProjectId,PCB_Layout,5043425f-4c61-4796-9f75-742e6b696361,rev?*%
%TF.SameCoordinates,Original*%
%TF.FileFunction,Soldermask,Top*%
%TF.FilePolarity,Negative*%
%FSLAX46Y46*%
G04 Gerber Fmt 4.6, Leading zero omitted, Abs format (unit mm)*
G04 Created by KiCad (PCBNEW (7.0.0)) date 2023-04-17 20:28:16*
%MOMM*%
%LPD*%
G01*
G04 APERTURE LIST*
%ADD10R,1.650000X1.650000*%
%ADD11C,1.650000*%
%ADD12R,4.000000X4.000000*%
%ADD13O,1.800000X1.800000*%
%ADD14O,1.500000X1.500000*%
%ADD15O,1.700000X1.700000*%
%ADD16R,3.500000X1.700000*%
%ADD17R,1.700000X1.700000*%
%ADD18R,1.700000X3.500000*%
G04 APERTURE END LIST*
D10*
%TO.C,MicroSD1*%
X145499999Y-125829999D03*
D11*
X145500000Y-123290000D03*
X145500000Y-120750000D03*
X145500000Y-118210000D03*
X145500000Y-115670000D03*
X145500000Y-113130000D03*
%TD*%
D10*
%TO.C,IMU1*%
X160499999Y-91849999D03*
D11*
X160500000Y-89310000D03*
X160500000Y-86770000D03*
X160500000Y-84230000D03*
X160500000Y-81690000D03*
X160500000Y-79150000D03*
%TD*%
D12*
%TO.C,U1*%
X197999999Y-127999999D03*
X197999999Y-110749999D03*
X158499999Y-127999999D03*
X158499999Y-110749999D03*
%TD*%
D10*
%TO.C,Radio1*%
X111649999Y-41522499D03*
D11*
X114190000Y-41522500D03*
X116730000Y-41522500D03*
X119270000Y-41522500D03*
X121810000Y-41522500D03*
X124350000Y-41522500D03*
%TD*%
D13*
%TO.C,U2*%
X180884999Y-46849999D03*
D14*
X181184999Y-49879999D03*
X186034999Y-49879999D03*
D13*
X186334999Y-46849999D03*
D15*
X174719999Y-46719999D03*
D16*
X173819999Y-46719999D03*
D15*
X174719999Y-49259999D03*
D16*
X173819999Y-49259999D03*
D17*
X174719999Y-51799999D03*
D16*
X173819999Y-51799999D03*
D15*
X174719999Y-54339999D03*
D16*
X173819999Y-54339999D03*
D15*
X174719999Y-56879999D03*
D16*
X173819999Y-56879999D03*
D15*
X174719999Y-59419999D03*
D16*
X173819999Y-59419999D03*
D15*
X174719999Y-61959999D03*
D16*
X173819999Y-61959999D03*
D17*
X174719999Y-64499999D03*
D16*
X173819999Y-64499999D03*
D15*
X174719999Y-67039999D03*
D16*
X173819999Y-67039999D03*
D15*
X174719999Y-69579999D03*
D16*
X173819999Y-69579999D03*
D15*
X174719999Y-72119999D03*
D16*
X173819999Y-72119999D03*
D15*
X174719999Y-74659999D03*
D16*
X173819999Y-74659999D03*
D17*
X174719999Y-77199999D03*
D16*
X173819999Y-77199999D03*
D15*
X174719999Y-79739999D03*
D16*
X173819999Y-79739999D03*
D15*
X174719999Y-82279999D03*
D16*
X173819999Y-82279999D03*
D15*
X174719999Y-84819999D03*
D16*
X173819999Y-84819999D03*
D15*
X174719999Y-87359999D03*
D16*
X173819999Y-87359999D03*
D17*
X174719999Y-89899999D03*
D16*
X173819999Y-89899999D03*
D15*
X174719999Y-92439999D03*
D16*
X173819999Y-92439999D03*
D15*
X174719999Y-94979999D03*
D16*
X173819999Y-94979999D03*
D15*
X192499999Y-94979999D03*
D16*
X193399999Y-94979999D03*
D15*
X192499999Y-92439999D03*
D16*
X193399999Y-92439999D03*
D17*
X192499999Y-89899999D03*
D16*
X193399999Y-89899999D03*
D15*
X192499999Y-87359999D03*
D16*
X193399999Y-87359999D03*
D15*
X192499999Y-84819999D03*
D16*
X193399999Y-84819999D03*
D15*
X192499999Y-82279999D03*
D16*
X193399999Y-82279999D03*
D15*
X192499999Y-79739999D03*
D16*
X193399999Y-79739999D03*
D17*
X192499999Y-77199999D03*
D16*
X193399999Y-77199999D03*
D15*
X192499999Y-74659999D03*
D16*
X193399999Y-74659999D03*
D15*
X192499999Y-72119999D03*
D16*
X193399999Y-72119999D03*
D15*
X192499999Y-69579999D03*
D16*
X193399999Y-69579999D03*
D15*
X192499999Y-67039999D03*
D16*
X193399999Y-67039999D03*
D17*
X192499999Y-64499999D03*
D16*
X193399999Y-64499999D03*
D15*
X192499999Y-61959999D03*
D16*
X193399999Y-61959999D03*
D15*
X192499999Y-59419999D03*
D16*
X193399999Y-59419999D03*
D15*
X192499999Y-56879999D03*
D16*
X193399999Y-56879999D03*
D15*
X192499999Y-54339999D03*
D16*
X193399999Y-54339999D03*
D17*
X192499999Y-51799999D03*
D16*
X193399999Y-51799999D03*
D15*
X192499999Y-49259999D03*
D16*
X193399999Y-49259999D03*
D15*
X192499999Y-46719999D03*
D16*
X193399999Y-46719999D03*
D15*
X181069999Y-94749999D03*
D18*
X181069999Y-95649999D03*
D17*
X183609999Y-94749999D03*
D18*
X183609999Y-95649999D03*
D15*
X186149999Y-94749999D03*
D18*
X186149999Y-95649999D03*
%TD*%
D10*
%TO.C,GPS1*%
X159999999Y-59159999D03*
D11*
X160000000Y-56620000D03*
X160000000Y-54080000D03*
X160000000Y-51540000D03*
X160000000Y-49000000D03*
X160000000Y-46460000D03*
%TD*%
M02*
